<mxfile host="app.diagrams.net" modified="2024-03-28T02:23:35.237Z" agent="Mozilla/5.0 (Windows NT 10.0; Win64; x64) AppleWebKit/537.36 (KHTML, like Gecko) Chrome/123.0.0.0 Safari/537.36" etag="n85sSBWfzadC9JRFxf8R" version="24.0.7" type="github">
  <diagram id="prtHgNgQTEPvFCAcTncT" name="Page-1">
    <mxGraphModel dx="2074" dy="1098" grid="1" gridSize="10" guides="1" tooltips="1" connect="1" arrows="1" fold="1" page="1" pageScale="1" pageWidth="827" pageHeight="1169" math="0" shadow="0">
      <root>
        <mxCell id="0" />
        <mxCell id="1" parent="0" />
        <mxCell id="GHc31jJdnOFLth1rxHLM-7" style="edgeStyle=orthogonalEdgeStyle;rounded=0;orthogonalLoop=1;jettySize=auto;html=1;dashed=1;" edge="1" parent="1" source="GHc31jJdnOFLth1rxHLM-2" target="GHc31jJdnOFLth1rxHLM-5">
          <mxGeometry relative="1" as="geometry" />
        </mxCell>
        <mxCell id="GHc31jJdnOFLth1rxHLM-2" value="APP登记端" style="shape=image;verticalLabelPosition=bottom;labelBackgroundColor=default;verticalAlign=top;aspect=fixed;imageAspect=0;image=data:image/svg+xml,PHN2ZyB4bWxuczp4bGluaz0iaHR0cDovL3d3dy53My5vcmcvMTk5OS94bGluayIgeG1sbnM9Imh0dHA6Ly93d3cudzMub3JnLzIwMDAvc3ZnIiBoZWlnaHQ9IjIwMCIgd2lkdGg9IjIwMCIgdmVyc2lvbj0iMS4xIiB2aWV3Qm94PSIwIDAgMTAyNCAxMDI0IiBjbGFzcz0iaWNvbiI+PHBhdGggZmlsbD0iI2VhOTg2YyIgZD0iTTkwMi4xNDQgMTkwLjQ2NHE0My4wMDggMS4wMjQgNjQuNTEyIDI0LjA2NHQyMS41MDQgNjAuOTI4bDAgNDEuOTg0cTAgMzYuODY0LTAuNTEyIDg4LjU3NnQtMC41MTIgMTExLjYxNi0wLjUxMiAxMTIuMTI4LTAuNTEyIDkwLjExMmwwIDQ1LjA1NnEwIDMyLjc2OC0xOC45NDQgNTQuNzg0dC00Ni41OTIgMjIuMDE2bC03ODQuMzg0IDBxLTMyLjc2OC0xLjAyNC01Ny4zNDQtMjQuMDY0dC0yNC41NzYtNTkuOTA0bDAtNDgxLjI4cTAtMTYuMzg0IDUuNjMyLTMxLjc0NHQxNi4zODQtMjcuNjQ4IDI2LjExMi0xOS45NjggMzUuODQtNy42OGw0NC4wMzIgMCA4OC4wNjQgMCAxMTYuNzM2IDAgMTMzLjEyIDAgMTMxLjA3MiAwcTY1LjUzNiAwIDExOC4yNzIgMC41MTJ0ODguNTc2IDAuNTEybDQ0LjAzMiAwek04NTcuMDg4IDI4Ni43MmwtNjk0LjI3MiAwIDEuMDI0IDQ1Mi42MDggNjkyLjIyNC0xLjAyNHpNOTI0LjY3MiA0NzcuMTg0cS0xNS4zNiAwLTI2LjYyNCAxMC43NTJ0LTExLjI2NCAyNi4xMTIgMTEuMjY0IDI2LjExMiAyNi42MjQgMTAuNzUyIDI2LjYyNC0xMC43NTIgMTEuMjY0LTI2LjExMi0xMS4yNjQtMjYuMTEyLTI2LjYyNC0xMC43NTJ6Ii8+PC9zdmc+;" vertex="1" parent="1">
          <mxGeometry x="334" y="70" width="80" height="80" as="geometry" />
        </mxCell>
        <mxCell id="GHc31jJdnOFLth1rxHLM-3" value="手机预约端" style="shape=image;verticalLabelPosition=bottom;labelBackgroundColor=default;verticalAlign=top;aspect=fixed;imageAspect=0;image=data:image/svg+xml,PHN2ZyB4bWxuczp4bGluaz0iaHR0cDovL3d3dy53My5vcmcvMTk5OS94bGluayIgeG1sbnM9Imh0dHA6Ly93d3cudzMub3JnLzIwMDAvc3ZnIiBoZWlnaHQ9IjIwMCIgd2lkdGg9IjIwMCIgdmVyc2lvbj0iMS4xIiB2aWV3Qm94PSIwIDAgMTAyNCAxMDI0IiBjbGFzcz0iaWNvbiI+PHBhdGggZmlsbD0iI2VhOTg2YyIgZD0iTTQyLjk5OCAxOS41OThoODM3LjIzMmMzNi44ODQgMCA4Mi4zODItMi42NzIgMTEzLjAzOCAzLjgyOGw1Ljc0OCA3LjY1OGgxLjkxNmwxLjkxNCA3LjY1OGgxLjkxNlY3My4yYzAgMzAuNzY4IDEuNTQyIDY3LjAzNC0zLjgzIDkxLjg4OGwtNy42NjQgNS43NDR2MS45MTRsLTcuNjY0IDEuOTE0djEuOTE0SDQzdi0xLjkxNGwtNy42NjQtMS45MTQtNS43NDgtNy42NThoLTEuOTE2bC0xLjkxNi03LjY1OGgtMS45MTZWMTIyLjk3MmMwLTMwLjc2OC0xLjU0LTY3LjAzNCAzLjgzMi05MS44ODhsNy42NjQtNS43NDR2LTEuOTE0YzMuMjEyLTIuMjE4IDQuMzg4IDAuMDQgNy42NjItMy44Mjh6IG00NS45OCAxOTUuMjY0SDg3Ni40YzQ2LjE2IDAgNzQuMzQyLTIuMzA4IDEwMS41NCAxNy4yM2wxLjkxNiAzLjgzIDcuNjY0IDUuNzQydjMuODNsNS43NDggMy44M3YzLjgyOGgxLjkxNnYzLjgzaDEuOTE2bDMuODMyIDExLjQ4NmgxLjkxNHY3LjY1OGgxLjkxNlY5MzguNDg4aC0xLjkxNnY3LjY1OGgtMS45MTR2NS43NDJoLTEuOTE2bC0xLjkxNiA3LjY1OGgtMS45MTZ2My44MjhsLTMuODMyIDEuOTE0djMuODI4bC05LjU4IDcuNjU4Yy0yLjU1MiAzLjE5LTUuMTEgNi4zOC03LjY2MiA5LjU3MmgtMy44MzJsLTEuOTE2IDMuODI4aC0zLjgzMnYxLjkxNGwtNy42NjQgMS45MTR2MS45MTRoLTUuNzQ2djEuOTE2aC03LjY2NHYxLjkxNEgyMDMuOTM0Yy00OS41MjQgMC0xMjAuMTA2IDcuMzI4LTE0OS40MzgtMTMuNGwtNS43NDgtNy42NTgtMTEuNDk2LTkuNTcydi0zLjgyOGwtMy44MzItMS45MTR2LTMuODI4aC0xLjkxNmwtMS45MTYtNy42NThoLTEuOTE2di01Ljc0MmgtMS45MTZ2LTcuNjU4aC0xLjkxNnYtMTYwLjgwNFY0MTkuN3YtMTAzLjM3NGMwLTE1LjA2Mi0yLjgyNC0zNS45MzggMS45MTYtNDcuODZoMS45MTZ2LTMuODI4aDEuOTE2di0zLjgzaDEuOTE2di0zLjgyOGgxLjkxNmwxLjkxNi03LjY1OCA1Ljc0OC0zLjgzdi0zLjgzaDEuOTE2bDUuNzQ4LTcuNjU4aDMuODMybDUuNzQ4LTcuNjU4aDMuODMydi0xLjkxNGw3LjY2NC0xLjkxNHYtMS45MTZoNS43NDh2LTEuOTE0bDEzLjQxMi0xLjkxNGMtMC4wMDYtMC42MzYtMC4wMDYtMS4yNzQtMC4wMDYtMS45MTJ6IG01Ljc0OCA3MC44M2MtMS4xNTIgNC4zMDYtMS42MTQgNC43NTItMy44MzIgNy42NThoLTEuOTE2bC01Ljc0OCAxNy4yM3Y1NTcuMDc0YzAgMTQuNTQ4LTIuNjcyIDM0LjQ3OCAxLjkxNiA0NS45NDRoMS45MTZ2My44M2gxLjkxNnYzLjgyOGgxLjkxNmMzLjY5OCA2LjQxNiA1LjQ2NCAxMS4yNzIgMTMuNDEyIDEzLjQgOS4zNiA5LjIyNiAzNy41OTQgNS43NDIgNTUuNTYgNS43NDJIOTEyLjgwMmM0Ljc3Ni0xLjQzNCA5Ljg5NC00LjU4MiAxNS4zMjYtNS43NDJsNy42NjQtOS41NzJoMS45MTZ2LTMuODI4YzEuMjc4LTAuNjM4IDIuNTU0LTEuMjc4IDMuODMyLTEuOTE0bDEuOTE2LTEzLjRoMS45MTZ2LTE1Ni45NzYtMjgzLjMyNC0xNTYuOTc2aC0xLjkxNnYtNy42NThoLTEuOTE2di0zLjgyOGgtMS45MTZ2LTMuODNoLTEuOTE2Yy0yLjIyLTIuOTA0LTIuNjY4LTMuMzU2LTMuODMyLTcuNjU4LTQuMzIyLTEuMTUyLTQuNzM2LTEuNjIyLTcuNjYyLTMuODI4di0xLjkxNmwtOS41OC0xLjkxNHYtMS45MTRIMTExLjk3MnYxLjkxNGwtOS41OCAxLjkxNHYxLjkxNmMtMi45MzIgMi4yMS0zLjM0OCAyLjY2NC03LjY2NiAzLjgyOHogbTYzLjIyMiAyMDIuOTIyaDQwLjIzNHYxLjkxNGgxLjkxNmwzOC4zMTggMjE4LjIzNmgxLjkxNmw3LjY2NC00NC4wMzJoMS45MTZ2LTkuNTdjNS4wOTItMTYuMTM4IDguMDk2LTM2LjA1NCAxMy40MTItNTEuNjg4di03LjY1OGgxLjkxNnYtNy42NTZoMS45MTZ2LTcuNjU4aDEuOTE2di03LjY1OGgxLjkxNnYtNy42NTZoMS45MTZsMy44MzItMjQuODg2aDEuOTE2bDExLjQ5Ni01MS42ODhoMzguMzE4YzEuMDM0IDYuNDg4IDQuMDIgMTMuNzkyIDUuNzQ4IDE5LjE0NHY5LjU3MmgxLjkxNnY3LjY1OGMzLjA4NiA5LjAyIDYuNTA0IDIxLjYwNiA5LjU4IDMwLjYyOGwxLjkxNiAxNS4zMTRoMS45MTZsMS45MTYgMTcuMjNjNi44MDYgMTkuODkyIDEwLjY1OCA0NC42MzYgMTcuMjQyIDY1LjA4NnY5LjU3MmgxLjkxNnY5LjU3MmgxLjkxNnY5LjU3MmgxLjkxNnY5LjU3aDEuOTE2YzIuMTc4IDYuOTMtMC42IDEyLjYyIDMuODMyIDE3LjIzdi0xLjkxNmM0Ljc5Mi01Ljc1MiAxLjMzNC0xNi41OCAzLjgzMi0yNC44ODRoMS45MTZ2LTExLjQ4NmgxLjkxNnYtMTEuNDg2aDEuOTE2bDEuOTE2LTIyLjk3MmM5LjI4LTMwLjg1NiA5Ljg4LTY4Ljg2OCAxOS4xNi05OS41NDR2LTExLjQ4NmgxLjkxNnYtMTEuNDg2aDEuOTE2YzIuMjUyLTcuNTU2LTAuNjUtMTguMDM4IDMuODMyLTIyLjk3MnYtMS45MTRoMzguMzE4bC00OS44MTIgMjYyLjI2NmgtNTEuNzI4Yy0xLjg5LTExLjQ5OC02LjEzMi0yNC4yODItOS41OC0zNC40NThsLTEuOTE2LTE3LjIyOGgtMS45MTZ2LTcuNjU4aC0xLjkxNnYtNy42NTZoLTEuOTE2di03LjY1OGgtMS45MTZ2LTcuNjU2aC0xLjkxNnYtNy42NThoLTEuOTE2di03LjY1OGgtMS45MTZ2LTcuNjU2aC0xLjkxNnYtNy42NThoLTEuOTE2di03LjY1NmgtMS45MTZ2LTkuNTcyaC0xLjkxNnYtNy42NThoLTEuOTE2di03LjY1NmgtMS45MTZ2LTkuNTcyaC0xLjkxNnYtOS41NzJoLTEuOTE2di0xMS40ODRjLTIuNjUyLTguNjUyLTUuMjMtMTcuNDU4LTUuNzQ4LTI4LjcxNmgtMy44MzJjLTAuMDEgMTAuOTU4LTMuMjIyIDIwLjQwOC01Ljc0OCAyOC43MTZ2MTEuNDg0aC0xLjkxNnY5LjU3MmgtMS45MTZ2OS41NzJoLTEuOTE2djcuNjU2aC0xLjkxNnY3LjY1OGgtMS45MTZsLTcuNjY0IDQwLjIwMmMtMy4wODQgOS4wMTgtNi41MTYgMjEuNjA0LTkuNTggMzAuNjI4djcuNjU4aC0xLjkxNnY5LjU3MmMtNC4xNjggMTIuODE0LTguNTk4IDI4LjA0Mi0xMS40OTYgNDIuMTE2aC00OS44MTJMMTU3Ljk0OCA0ODguNjE0eiBtMzI1LjY5OCAwaDE1NS4xODR2MzQuNDU4aC0xMTQuOTUydjcyLjc0NGg5NS43OTJ2MzYuMzc0aC05NS43OTJ2ODIuMzE2aDExNi44NjhjMy4yMzYgOC42ODggMi4wMTIgMjQuNjA2IDEuOTE2IDM2LjM3NGgtMTU5LjAxNlY0ODguNjE0eiBtMTkzLjUwMiAwaDc0LjcxOGw0Mi4xNDggMS45MTR2MS45MTRoNy42NjR2MS45MTZsMTEuNDk0IDEuOTE0djEuOTE0bDcuNjY0IDEuOTE2djEuOTE0aDMuODMybDUuNzQ2IDcuNjU4aDMuODMybDEuOTE2IDMuODNoMS45MTZ2My44MjhjMS4yNzggMC42MzggMi41NTQgMS4yNzggMy44MzIgMS45MTR2My44M2gxLjkxNmwxLjkxNiA3LjY1NmgxLjkxNnY3LjY1OGM5LjMyNiAyOS40Ny0xMC44NDQgNjYuMjYyLTMyLjU3IDcwLjgzdjMuODI4YzYuOTIyIDAuMjg2IDE2LjY0IDIuOTQ0IDIxLjA3NCA1Ljc0NGwxLjkxNiAzLjgyOGgzLjgzMmw5LjU4IDExLjQ4NiAzLjgzIDEuOTE0djMuODI4bDMuODMyIDEuOTE2djUuNzQyaDEuOTE2djMuODI4aDEuOTE2djcuNjU4YzcuMjk4IDIyLjkyOC0yLjIwNCA0OC4zNC0xMS40OTQgNjEuMjYtMS4yNzggMC42MzYtMi41NTQgMS4yNzYtMy44MzIgMS45MTRsLTcuNjY0IDkuNTctNy42NjQgMS45MTYtMS45MTYgMy44MjhoLTMuODN2MS45MTRoLTMuODMydjEuOTE0aC01Ljc0OHYxLjkxNGgtMy44MzJ2MS45MTRoLTUuNzQ4djEuOTE2aC05LjU3OHYxLjkxNGwtNDIuMTUgMS45MTRoLTc4LjU0OFY0ODguNjE0eiBtNDIuMTQ4IDMyLjU0MnY3Ni41NzRjMTUuNzggMC4yMjIgMzcuMjcgMS43NTggNDkuODEyLTEuOTE0aDExLjQ5NGM1Ljc3Ni0xLjkzNCAxMC40NDItNi4xMTIgMTcuMjQ0LTcuNjU2bDMuODMyLTUuNzQ0aDEuOTE2di0zLjgyOGMxLjI3Ni0wLjYzOCAyLjU1Mi0xLjI3OCAzLjgzLTEuOTE0di01Ljc0NGgxLjkxNmMzLjIyNi05LjUxNi0wLjk4Mi0yMS4wNzYtMS45MTYtMzAuNjI4LTQuNTU0LTIuOTM0LTMuMDQyLTUuNTU4LTUuNzQ2LTcuNjU4aC0zLjgzMmwtMS45MTYtMy44MjgtNy42NjQtMS45MTR2LTEuOTE0aC03LjY2NGMtMTUuOTI2LTUuMTctNDAuMDYyLTMuODI2LTYxLjMwNi0zLjgzMnogbTAgMTExLjAzNHY4OC4wNmMzNi44MjYgMC44NTggOTIuNjY2IDAuMzMgOTkuNjI2LTI2LjgwMmgxLjkxNnYtNS43NDJjNS4yMDgtMTIuODE4IDEuNTgtMTguNjA4IDAtMzIuNTQyaC0xLjkxNmwtMS45MTYtNS43NDQtMTUuMzI2LTExLjQ4NmgtMy44MzJ2LTEuOTE0Yy0xNi45Ny02Ljc3OC01NS4xNTItMy44MjgtNzguNTUyLTMuODN6Ii8+PC9zdmc+;" vertex="1" parent="1">
          <mxGeometry x="180" y="150" width="60" height="60" as="geometry" />
        </mxCell>
        <mxCell id="GHc31jJdnOFLth1rxHLM-9" style="edgeStyle=orthogonalEdgeStyle;rounded=0;orthogonalLoop=1;jettySize=auto;html=1;entryX=1;entryY=0.5;entryDx=0;entryDy=0;dashed=1;" edge="1" parent="1" source="GHc31jJdnOFLth1rxHLM-4" target="GHc31jJdnOFLth1rxHLM-5">
          <mxGeometry relative="1" as="geometry" />
        </mxCell>
        <mxCell id="GHc31jJdnOFLth1rxHLM-4" value="PC管理端" style="shape=image;verticalLabelPosition=bottom;labelBackgroundColor=default;verticalAlign=top;aspect=fixed;imageAspect=0;image=data:image/svg+xml,PHN2ZyB4bWxuczp4bGluaz0iaHR0cDovL3d3dy53My5vcmcvMTk5OS94bGluayIgeG1sbnM9Imh0dHA6Ly93d3cudzMub3JnLzIwMDAvc3ZnIiBoZWlnaHQ9IjIwMCIgd2lkdGg9IjIwMCIgdmVyc2lvbj0iMS4xIiB2aWV3Qm94PSIwIDAgMTAyNCAxMDI0IiBjbGFzcz0iaWNvbiI+PHBhdGggZmlsbD0iI2VhOTg2YyIgZD0iTTkwMC4xMzU1ODcgOTA0LjU3NTk4MSIvPjxwYXRoIGZpbGw9IiNlYTk4NmMiIGQ9Ik05NDguMDkxODQyIDgxMS4yMzczOTVsLTQ1LjEyNjQ0NCAwTDEyMS4wNDk2NTUgODExLjIzNzM5NSA3NS45MzgyNjMgODExLjIzNzM5NWMtMjQuOTI2NDE1IDAtNDUuMTExMzkyLTIwLjA3OTYxMi00NS4xMTEzOTItNDQuODcwNTU3bDAtNzQuODA5MzQ5IDkwLjIyMjc4NCAwTDEyMS4wNDk2NTUgMjU3LjY3ODMxOGMwLTI0Ljc5MDk0NSAyMC4yMDAwMjktNDQuODg1NjA5IDQ1LjExMTM5Mi00NC44ODU2MDlsNjkxLjcyMzA2MyAwYzI0Ljg5NjMxIDAgNDUuMDk2MzQgMjAuMDc5NjEyIDQ1LjA5NjM0IDQ0Ljg4NTYwOWwwIDQzMy44NzkxNzEgOTAuMjIyNzg0IDAgMCA3NC44MDkzNDlDOTkzLjE4ODE4MiA3OTEuMTU3NzgzIDk3Mi45ODgxNTIgODExLjIzNzM5NSA5NDguMDkxODQyIDgxMS4yMzczOTV6TTQwNi43NDAwODUgNzY2LjM1MTc4NmwyMTAuNTE5ODI5IDAgMC0yOS45MDg2ODdMNDA2Ljc0MDA4NSA3MzYuNDQzMDk5IDQwNi43NDAwODUgNzY2LjM1MTc4NnpNODQyLjgxNjg3NSAyNzIuNjI1MTM2IDE4MS4xOTgxNzcgMjcyLjYyNTEzNmwwIDM4OC45OTM1NjIgNjYxLjYxODY5OCAwTDg0Mi44MTY4NzUgMjcyLjYyNTEzNnoiLz48L3N2Zz4=;" vertex="1" parent="1">
          <mxGeometry x="510" y="135" width="90" height="90" as="geometry" />
        </mxCell>
        <mxCell id="GHc31jJdnOFLth1rxHLM-5" value="API接口" style="shape=image;verticalLabelPosition=bottom;labelBackgroundColor=default;verticalAlign=top;aspect=fixed;imageAspect=0;image=data:image/svg+xml,PHN2ZyB4bWxuczp4bGluaz0iaHR0cDovL3d3dy53My5vcmcvMTk5OS94bGluayIgeG1sbnM9Imh0dHA6Ly93d3cudzMub3JnLzIwMDAvc3ZnIiBoZWlnaHQ9IjIwMCIgd2lkdGg9IjIwMCIgdmVyc2lvbj0iMS4xIiB2aWV3Qm94PSIwIDAgMTAyNCAxMDI0IiBjbGFzcz0iaWNvbiI+PHBhdGggZmlsbD0iI2VhOTg2YyIgZD0iTTE0NCAxNjBoNzM2YzI1LjYgMCA0OCAyMi40IDQ4IDQ4djkyLjhIOTZWMjA4Qzk2IDE4Mi40IDExOC40IDE2MCAxNDQgMTYwek0xNjAgMjA4VjI1Nmg2NFYyMDhIMTYweiBtMTEyIDBWMjU2aDY0VjIwOGgtNjR6IG0xMTIgMFYyNTZoNjRWMjA4aC02NHpNNTgyLjQgNTA4LjhoLTI1LjZ2OTIuOGgyNS42YzM4LjQgMCA1NC40LTkuNiA1NC40LTQ0LjggMC0zOC40LTE2LTQ4LTU0LjQtNDh6TTMyOS42IDUxMmwtMzUuMiAxMDIuNGg3My42TDMzMi44IDUxMnoiLz48cGF0aCBmaWxsPSIjZWE5ODZjIiBkPSJNOTYgMzU1LjJ2NDgzLjJjMCAxOS4yIDEyLjggMzIgMzIgMzJoNzY4YzE5LjIgMCAzMi0xMi44IDMyLTMyVjM1NS4ySDk2eiBtMzEwLjQgMzcxLjJsLTIyLjQtNjRIMjc4LjRMMjU2IDcyOS42SDE5Mmw5OS4yLTI2NS42aDc2LjhsOTkuMiAyNjUuNmgtNjAuOHogbTE4NS42LTgwaC0zMnY4My4yaC01Ny42di0yNjUuNmg4OS42YzgwIDAgMTA1LjYgMjUuNiAxMDUuNiA4OS42LTMuMiA2Ny4yLTMyIDkyLjgtMTA1LjYgOTIuOHogbTIxMS4yIDgwaC01Ny42di0yNjUuNmg1Ny42djI2NS42eiIvPjwvc3ZnPg==;" vertex="1" parent="1">
          <mxGeometry x="339" y="290" width="70" height="70" as="geometry" />
        </mxCell>
        <mxCell id="GHc31jJdnOFLth1rxHLM-6" style="edgeStyle=orthogonalEdgeStyle;rounded=0;orthogonalLoop=1;jettySize=auto;html=1;entryX=-0.014;entryY=0.386;entryDx=0;entryDy=0;entryPerimeter=0;dashed=1;" edge="1" parent="1" source="GHc31jJdnOFLth1rxHLM-3" target="GHc31jJdnOFLth1rxHLM-5">
          <mxGeometry relative="1" as="geometry" />
        </mxCell>
      </root>
    </mxGraphModel>
  </diagram>
</mxfile>
